<svg xmlns="http://www.w3.org/2000/svg" viewBox="0 0 1200 300" fill="none">
  <defs>
    <linearGradient id="bg" x1="0%" y1="0%" x2="100%" y2="100%">
      <stop offset="0%" style="stop-color:#0d1117"/>
      <stop offset="100%" style="stop-color:#161b22"/>
    </linearGradient>
    <linearGradient id="accent" x1="0%" y1="0%" x2="100%" y2="0%">
      <stop offset="0%" style="stop-color:#a371f7"/>
      <stop offset="50%" style="stop-color:#58a6ff"/>
      <stop offset="100%" style="stop-color:#3fb950"/>
    </linearGradient>
  </defs>
  <rect width="1200" height="300" fill="url(#bg)" rx="12"/>
  <!-- Decorative grid dots -->
  <g opacity="0.08" fill="#a371f7">
    <circle cx="50" cy="50" r="2"/><circle cx="100" cy="50" r="2"/><circle cx="150" cy="50" r="2"/><circle cx="200" cy="50" r="2"/><circle cx="250" cy="50" r="2"/><circle cx="300" cy="50" r="2"/>
    <circle cx="50" cy="100" r="2"/><circle cx="100" cy="100" r="2"/><circle cx="150" cy="100" r="2"/><circle cx="200" cy="100" r="2"/><circle cx="250" cy="100" r="2"/><circle cx="300" cy="100" r="2"/>
    <circle cx="50" cy="150" r="2"/><circle cx="100" cy="150" r="2"/><circle cx="150" cy="150" r="2"/><circle cx="200" cy="150" r="2"/><circle cx="250" cy="150" r="2"/><circle cx="300" cy="150" r="2"/>
    <circle cx="50" cy="200" r="2"/><circle cx="100" cy="200" r="2"/><circle cx="150" cy="200" r="2"/><circle cx="200" cy="200" r="2"/><circle cx="250" cy="200" r="2"/><circle cx="300" cy="200" r="2"/>
    <circle cx="50" cy="250" r="2"/><circle cx="100" cy="250" r="2"/><circle cx="150" cy="250" r="2"/><circle cx="200" cy="250" r="2"/><circle cx="250" cy="250" r="2"/><circle cx="300" cy="250" r="2"/>
    <circle cx="900" cy="50" r="2"/><circle cx="950" cy="50" r="2"/><circle cx="1000" cy="50" r="2"/><circle cx="1050" cy="50" r="2"/><circle cx="1100" cy="50" r="2"/><circle cx="1150" cy="50" r="2"/>
    <circle cx="900" cy="100" r="2"/><circle cx="950" cy="100" r="2"/><circle cx="1000" cy="100" r="2"/><circle cx="1050" cy="100" r="2"/><circle cx="1100" cy="100" r="2"/><circle cx="1150" cy="100" r="2"/>
    <circle cx="900" cy="150" r="2"/><circle cx="950" cy="150" r="2"/><circle cx="1000" cy="150" r="2"/><circle cx="1050" cy="150" r="2"/><circle cx="1100" cy="150" r="2"/><circle cx="1150" cy="150" r="2"/>
    <circle cx="900" cy="200" r="2"/><circle cx="950" cy="200" r="2"/><circle cx="1000" cy="200" r="2"/><circle cx="1050" cy="200" r="2"/><circle cx="1100" cy="200" r="2"/><circle cx="1150" cy="200" r="2"/>
    <circle cx="900" cy="250" r="2"/><circle cx="950" cy="250" r="2"/><circle cx="1000" cy="250" r="2"/><circle cx="1050" cy="250" r="2"/><circle cx="1100" cy="250" r="2"/><circle cx="1150" cy="250" r="2"/>
  </g>
  <!-- Accent line top -->
  <rect x="0" y="0" width="1200" height="4" fill="url(#accent)"/>
  <!-- Book icon -->
  <g transform="translate(560, 70)">
    <rect x="5" y="0" width="35" height="45" rx="3" fill="#a371f7" opacity="0.8"/>
    <rect x="40" y="0" width="35" height="45" rx="3" fill="#58a6ff" opacity="0.8"/>
    <rect x="37" y="0" width="6" height="45" fill="#0d1117"/>
    <line x1="15" y1="12" x2="32" y2="12" stroke="#0d1117" stroke-width="2" opacity="0.5"/>
    <line x1="15" y1="20" x2="30" y2="20" stroke="#0d1117" stroke-width="2" opacity="0.5"/>
    <line x1="48" y1="12" x2="65" y2="12" stroke="#0d1117" stroke-width="2" opacity="0.5"/>
    <line x1="48" y1="20" x2="63" y2="20" stroke="#0d1117" stroke-width="2" opacity="0.5"/>
  </g>
  <!-- Title -->
  <text x="600" y="165" text-anchor="middle" font-family="-apple-system, BlinkMacSystemFont, 'Segoe UI', Helvetica, Arial, sans-serif" font-size="46" font-weight="700" fill="#f0f6fc">Reference</text>
  <!-- Subtitle -->
  <text x="600" y="205" text-anchor="middle" font-family="-apple-system, BlinkMacSystemFont, 'Segoe UI', Helvetica, Arial, sans-serif" font-size="20" font-weight="400" fill="#8b949e">Technical Guides, Comparisons &amp; Configuration</text>
  <!-- Pill badges -->
  <g transform="translate(300, 225)">
    <rect x="0" y="0" width="100" height="26" rx="13" fill="#8957e5" opacity="0.2"/>
    <text x="50" y="17" text-anchor="middle" font-family="monospace" font-size="12" fill="#a371f7">Licensing</text>
    <rect x="115" y="0" width="110" height="26" rx="13" fill="#1f6feb" opacity="0.2"/>
    <text x="170" y="17" text-anchor="middle" font-family="monospace" font-size="12" fill="#58a6ff">Comparisons</text>
    <rect x="240" y="0" width="90" height="26" rx="13" fill="#238636" opacity="0.25"/>
    <text x="285" y="17" text-anchor="middle" font-family="monospace" font-size="12" fill="#3fb950">Agents</text>
    <rect x="345" y="0" width="100" height="26" rx="13" fill="#1f6feb" opacity="0.2"/>
    <text x="395" y="17" text-anchor="middle" font-family="monospace" font-size="12" fill="#58a6ff">Prompting</text>
    <rect x="460" y="0" width="110" height="26" rx="13" fill="#8957e5" opacity="0.2"/>
    <text x="515" y="17" text-anchor="middle" font-family="monospace" font-size="12" fill="#a371f7">Workshops</text>
  </g>
  <!-- Accent line bottom -->
  <rect x="0" y="296" width="1200" height="4" fill="url(#accent)"/>
</svg>
