<svg xmlns="http://www.w3.org/2000/svg" viewBox="0 0 1200 300" fill="none">
  <defs>
    <linearGradient id="bg" x1="0%" y1="0%" x2="100%" y2="100%">
      <stop offset="0%" style="stop-color:#0d1117"/>
      <stop offset="100%" style="stop-color:#161b22"/>
    </linearGradient>
    <linearGradient id="accent" x1="0%" y1="0%" x2="100%" y2="0%">
      <stop offset="0%" style="stop-color:#3fb950"/><stop offset="50%" style="stop-color:#d29922"/><stop offset="100%" style="stop-color:#3fb950"/>
    </linearGradient>
  </defs>
  <rect width="1200" height="300" fill="url(#bg)" rx="12"/>
  <!-- Decorative grid dots -->
  <g opacity="0.08" fill="#d29922">
    <circle cx="50" cy="50" r="2"/><circle cx="100" cy="50" r="2"/><circle cx="150" cy="50" r="2"/><circle cx="200" cy="50" r="2"/><circle cx="250" cy="50" r="2"/><circle cx="300" cy="50" r="2"/>
    <circle cx="50" cy="100" r="2"/><circle cx="100" cy="100" r="2"/><circle cx="150" cy="100" r="2"/><circle cx="200" cy="100" r="2"/><circle cx="250" cy="100" r="2"/><circle cx="300" cy="100" r="2"/>
    <circle cx="50" cy="150" r="2"/><circle cx="100" cy="150" r="2"/><circle cx="150" cy="150" r="2"/><circle cx="200" cy="150" r="2"/><circle cx="250" cy="150" r="2"/><circle cx="300" cy="150" r="2"/>
    <circle cx="50" cy="200" r="2"/><circle cx="100" cy="200" r="2"/><circle cx="150" cy="200" r="2"/><circle cx="200" cy="200" r="2"/><circle cx="250" cy="200" r="2"/><circle cx="300" cy="200" r="2"/>
    <circle cx="50" cy="250" r="2"/><circle cx="100" cy="250" r="2"/><circle cx="150" cy="250" r="2"/><circle cx="200" cy="250" r="2"/><circle cx="250" cy="250" r="2"/><circle cx="300" cy="250" r="2"/>
    <circle cx="900" cy="50" r="2"/><circle cx="950" cy="50" r="2"/><circle cx="1000" cy="50" r="2"/><circle cx="1050" cy="50" r="2"/><circle cx="1100" cy="50" r="2"/><circle cx="1150" cy="50" r="2"/>
    <circle cx="900" cy="100" r="2"/><circle cx="950" cy="100" r="2"/><circle cx="1000" cy="100" r="2"/><circle cx="1050" cy="100" r="2"/><circle cx="1100" cy="100" r="2"/><circle cx="1150" cy="100" r="2"/>
    <circle cx="900" cy="150" r="2"/><circle cx="950" cy="150" r="2"/><circle cx="1000" cy="150" r="2"/><circle cx="1050" cy="150" r="2"/><circle cx="1100" cy="150" r="2"/><circle cx="1150" cy="150" r="2"/>
    <circle cx="900" cy="200" r="2"/><circle cx="950" cy="200" r="2"/><circle cx="1000" cy="200" r="2"/><circle cx="1050" cy="200" r="2"/><circle cx="1100" cy="200" r="2"/><circle cx="1150" cy="200" r="2"/>
    <circle cx="900" cy="250" r="2"/><circle cx="950" cy="250" r="2"/><circle cx="1000" cy="250" r="2"/><circle cx="1050" cy="250" r="2"/><circle cx="1100" cy="250" r="2"/><circle cx="1150" cy="250" r="2"/>
  </g>
  <!-- Accent line top -->
  <rect x="0" y="0" width="1200" height="4" fill="url(#accent)"/>
  <!-- Icon -->
  <g transform="translate(535, 65)">
    <circle cx="65" cy="35" r="34" fill="#d29922" opacity="0.85"/>
    <text x="65" y="46" text-anchor="middle" font-family="-apple-system, sans-serif" font-size="34" font-weight="700" fill="#0d1117">$</text>
    <path d="M20 75 L110 75" stroke="#3fb950" stroke-width="4" stroke-linecap="round" opacity="0.6"/>
  </g>
  <!-- Title -->
  <text x="600" y="165" text-anchor="middle" font-family="-apple-system, BlinkMacSystemFont, 'Segoe UI', Helvetica, Arial, sans-serif" font-size="44" font-weight="700" fill="#f0f6fc">Usage-Based Billing &amp; Cost Governance</text>
  <!-- Subtitle -->
  <text x="600" y="205" text-anchor="middle" font-family="-apple-system, BlinkMacSystemFont, 'Segoe UI', Helvetica, Arial, sans-serif" font-size="19" font-weight="400" fill="#8b949e">Metered Billing, Budgets, Allocation &amp; FinOps for GitHub</text>
  <!-- Pill badges -->
  <g transform="translate(367.5, 230)">
    <rect x="0" y="0" width="130" height="26" rx="13" fill="#238636" opacity="0.22"/><text x="65.0" y="17" text-anchor="middle" font-family="monospace" font-size="12" fill="#3fb950">Metered Billing</text><rect x="145" y="0" width="90" height="26" rx="13" fill="#9e6a03" opacity="0.22"/><text x="190.0" y="17" text-anchor="middle" font-family="monospace" font-size="12" fill="#d29922">Budgets</text><rect x="250" y="0" width="110" height="26" rx="13" fill="#1f6feb" opacity="0.22"/><text x="305.0" y="17" text-anchor="middle" font-family="monospace" font-size="12" fill="#58a6ff">Chargeback</text><rect x="375" y="0" width="90" height="26" rx="13" fill="#8957e5" opacity="0.22"/><text x="420.0" y="17" text-anchor="middle" font-family="monospace" font-size="12" fill="#a371f7">FinOps</text>
  </g>
  <!-- Accent line bottom -->
  <rect x="0" y="296" width="1200" height="4" fill="url(#accent)"/>
</svg>
