<svg xmlns="http://www.w3.org/2000/svg" viewBox="0 0 1200 300" fill="none">
  <defs>
    <linearGradient id="bg" x1="0%" y1="0%" x2="100%" y2="100%">
      <stop offset="0%" style="stop-color:#0d1117"/>
      <stop offset="100%" style="stop-color:#161b22"/>
    </linearGradient>
    <linearGradient id="accent" x1="0%" y1="0%" x2="100%" y2="0%">
      <stop offset="0%" style="stop-color:#f78166"/>
      <stop offset="50%" style="stop-color:#58a6ff"/>
      <stop offset="100%" style="stop-color:#3fb950"/>
    </linearGradient>
  </defs>
  <rect width="1200" height="300" fill="url(#bg)" rx="12"/>
  <!-- Decorative grid dots -->
  <g opacity="0.08" fill="#58a6ff">
    <circle cx="50" cy="50" r="2"/><circle cx="100" cy="50" r="2"/><circle cx="150" cy="50" r="2"/><circle cx="200" cy="50" r="2"/><circle cx="250" cy="50" r="2"/><circle cx="300" cy="50" r="2"/>
    <circle cx="50" cy="100" r="2"/><circle cx="100" cy="100" r="2"/><circle cx="150" cy="100" r="2"/><circle cx="200" cy="100" r="2"/><circle cx="250" cy="100" r="2"/><circle cx="300" cy="100" r="2"/>
    <circle cx="50" cy="150" r="2"/><circle cx="100" cy="150" r="2"/><circle cx="150" cy="150" r="2"/><circle cx="200" cy="150" r="2"/><circle cx="250" cy="150" r="2"/><circle cx="300" cy="150" r="2"/>
    <circle cx="50" cy="200" r="2"/><circle cx="100" cy="200" r="2"/><circle cx="150" cy="200" r="2"/><circle cx="200" cy="200" r="2"/><circle cx="250" cy="200" r="2"/><circle cx="300" cy="200" r="2"/>
    <circle cx="50" cy="250" r="2"/><circle cx="100" cy="250" r="2"/><circle cx="150" cy="250" r="2"/><circle cx="200" cy="250" r="2"/><circle cx="250" cy="250" r="2"/><circle cx="300" cy="250" r="2"/>
    <circle cx="900" cy="50" r="2"/><circle cx="950" cy="50" r="2"/><circle cx="1000" cy="50" r="2"/><circle cx="1050" cy="50" r="2"/><circle cx="1100" cy="50" r="2"/><circle cx="1150" cy="50" r="2"/>
    <circle cx="900" cy="100" r="2"/><circle cx="950" cy="100" r="2"/><circle cx="1000" cy="100" r="2"/><circle cx="1050" cy="100" r="2"/><circle cx="1100" cy="100" r="2"/><circle cx="1150" cy="100" r="2"/>
    <circle cx="900" cy="150" r="2"/><circle cx="950" cy="150" r="2"/><circle cx="1000" cy="150" r="2"/><circle cx="1050" cy="150" r="2"/><circle cx="1100" cy="150" r="2"/><circle cx="1150" cy="150" r="2"/>
    <circle cx="900" cy="200" r="2"/><circle cx="950" cy="200" r="2"/><circle cx="1000" cy="200" r="2"/><circle cx="1050" cy="200" r="2"/><circle cx="1100" cy="200" r="2"/><circle cx="1150" cy="200" r="2"/>
    <circle cx="900" cy="250" r="2"/><circle cx="950" cy="250" r="2"/><circle cx="1000" cy="250" r="2"/><circle cx="1050" cy="250" r="2"/><circle cx="1100" cy="250" r="2"/><circle cx="1150" cy="250" r="2"/>
  </g>
  <!-- Accent line top -->
  <rect x="0" y="0" width="1200" height="4" fill="url(#accent)"/>
  <!-- Graduation cap icon -->
  <g transform="translate(550, 70)">
    <path d="M50 10L0 30L50 50L100 30Z" fill="#58a6ff" opacity="0.9"/>
    <path d="M20 35V55L50 65L80 55V35" fill="#58a6ff" opacity="0.6"/>
    <rect x="90" y="30" width="3" height="35" fill="#f78166" opacity="0.8"/>
    <circle cx="91.5" cy="68" r="4" fill="#f78166" opacity="0.8"/>
  </g>
  <!-- Title -->
  <text x="600" y="165" text-anchor="middle" font-family="-apple-system, BlinkMacSystemFont, 'Segoe UI', Helvetica, Arial, sans-serif" font-size="46" font-weight="700" fill="#f0f6fc">Leveling Up</text>
  <!-- Subtitle -->
  <text x="600" y="205" text-anchor="middle" font-family="-apple-system, BlinkMacSystemFont, 'Segoe UI', Helvetica, Arial, sans-serif" font-size="20" font-weight="400" fill="#8b949e">Learning, Certifications &amp; Skills Development</text>
  <!-- Pill badges -->
  <g transform="translate(290, 230)">
    <rect x="0" y="0" width="120" height="26" rx="13" fill="#238636" opacity="0.25"/>
    <text x="60" y="17" text-anchor="middle" font-family="monospace" font-size="12" fill="#3fb950">Certifications</text>
    <rect x="135" y="0" width="90" height="26" rx="13" fill="#1f6feb" opacity="0.2"/>
    <text x="180" y="17" text-anchor="middle" font-family="monospace" font-size="12" fill="#58a6ff">Courses</text>
    <rect x="240" y="0" width="90" height="26" rx="13" fill="#da3633" opacity="0.2"/>
    <text x="285" y="17" text-anchor="middle" font-family="monospace" font-size="12" fill="#f78166">Agentic AI</text>
    <rect x="345" y="0" width="90" height="26" rx="13" fill="#8957e5" opacity="0.2"/>
    <text x="390" y="17" text-anchor="middle" font-family="monospace" font-size="12" fill="#a371f7">Skills</text>
    <rect x="450" y="0" width="100" height="26" rx="13" fill="#1f6feb" opacity="0.2"/>
    <text x="500" y="17" text-anchor="middle" font-family="monospace" font-size="12" fill="#58a6ff">Classroom</text>
  </g>
  <!-- Accent line bottom -->
  <rect x="0" y="296" width="1200" height="4" fill="url(#accent)"/>
</svg>
