<svg xmlns="http://www.w3.org/2000/svg" viewBox="0 0 1200 300" fill="none">
  <defs>
    <linearGradient id="bg" x1="0%" y1="0%" x2="100%" y2="100%">
      <stop offset="0%" style="stop-color:#0d1117"/>
      <stop offset="100%" style="stop-color:#161b22"/>
    </linearGradient>
    <linearGradient id="accent" x1="0%" y1="0%" x2="100%" y2="0%">
      <stop offset="0%" style="stop-color:#3fb950"/>
      <stop offset="50%" style="stop-color:#58a6ff"/>
      <stop offset="100%" style="stop-color:#a371f7"/>
    </linearGradient>
  </defs>
  <rect width="1200" height="300" fill="url(#bg)" rx="12"/>
  <!-- Decorative grid dots -->
  <g opacity="0.08" fill="#3fb950">
    <circle cx="50" cy="50" r="2"/><circle cx="100" cy="50" r="2"/><circle cx="150" cy="50" r="2"/><circle cx="200" cy="50" r="2"/><circle cx="250" cy="50" r="2"/><circle cx="300" cy="50" r="2"/>
    <circle cx="50" cy="100" r="2"/><circle cx="100" cy="100" r="2"/><circle cx="150" cy="100" r="2"/><circle cx="200" cy="100" r="2"/><circle cx="250" cy="100" r="2"/><circle cx="300" cy="100" r="2"/>
    <circle cx="50" cy="150" r="2"/><circle cx="100" cy="150" r="2"/><circle cx="150" cy="150" r="2"/><circle cx="200" cy="150" r="2"/><circle cx="250" cy="150" r="2"/><circle cx="300" cy="150" r="2"/>
    <circle cx="50" cy="200" r="2"/><circle cx="100" cy="200" r="2"/><circle cx="150" cy="200" r="2"/><circle cx="200" cy="200" r="2"/><circle cx="250" cy="200" r="2"/><circle cx="300" cy="200" r="2"/>
    <circle cx="50" cy="250" r="2"/><circle cx="100" cy="250" r="2"/><circle cx="150" cy="250" r="2"/><circle cx="200" cy="250" r="2"/><circle cx="250" cy="250" r="2"/><circle cx="300" cy="250" r="2"/>
    <circle cx="900" cy="50" r="2"/><circle cx="950" cy="50" r="2"/><circle cx="1000" cy="50" r="2"/><circle cx="1050" cy="50" r="2"/><circle cx="1100" cy="50" r="2"/><circle cx="1150" cy="50" r="2"/>
    <circle cx="900" cy="100" r="2"/><circle cx="950" cy="100" r="2"/><circle cx="1000" cy="100" r="2"/><circle cx="1050" cy="100" r="2"/><circle cx="1100" cy="100" r="2"/><circle cx="1150" cy="100" r="2"/>
    <circle cx="900" cy="150" r="2"/><circle cx="950" cy="150" r="2"/><circle cx="1000" cy="150" r="2"/><circle cx="1050" cy="150" r="2"/><circle cx="1100" cy="150" r="2"/><circle cx="1150" cy="150" r="2"/>
    <circle cx="900" cy="200" r="2"/><circle cx="950" cy="200" r="2"/><circle cx="1000" cy="200" r="2"/><circle cx="1050" cy="200" r="2"/><circle cx="1100" cy="200" r="2"/><circle cx="1150" cy="200" r="2"/>
    <circle cx="900" cy="250" r="2"/><circle cx="950" cy="250" r="2"/><circle cx="1000" cy="250" r="2"/><circle cx="1050" cy="250" r="2"/><circle cx="1100" cy="250" r="2"/><circle cx="1150" cy="250" r="2"/>
  </g>
  <!-- Accent line top -->
  <rect x="0" y="0" width="1200" height="4" fill="url(#accent)"/>
  <!-- Rocket icon -->
  <g transform="translate(430, 90)">
    <path d="M16 0C16 0 21 5 21 13C21 17.5 19 21.5 16 24C13 21.5 11 17.5 11 13C11 5 16 0 16 0Z" fill="#3fb950" opacity="0.9"/>
    <circle cx="16" cy="13" r="3" fill="#0d1117"/>
    <path d="M11 20L7 24L9 26L13 22" fill="#3fb950" opacity="0.6"/>
    <path d="M21 20L25 24L23 26L19 22" fill="#3fb950" opacity="0.6"/>
    <path d="M13 24L16 32L19 24" fill="#58a6ff" opacity="0.7"/>
  </g>
  <!-- Title -->
  <text x="600" y="150" text-anchor="middle" font-family="-apple-system, BlinkMacSystemFont, 'Segoe UI', Helvetica, Arial, sans-serif" font-size="46" font-weight="700" fill="#f0f6fc">Getting Started with GitHub</text>
  <!-- Subtitle -->
  <text x="600" y="195" text-anchor="middle" font-family="-apple-system, BlinkMacSystemFont, 'Segoe UI', Helvetica, Arial, sans-serif" font-size="20" font-weight="400" fill="#8b949e">Your OpCo Resource Pack — From Evaluation to Launch</text>
  <!-- Pill badges -->
  <g transform="translate(330, 225)">
    <rect x="0" y="0" width="100" height="26" rx="13" fill="#238636" opacity="0.25"/>
    <text x="50" y="17" text-anchor="middle" font-family="monospace" font-size="12" fill="#3fb950">Licensing</text>
    <rect x="115" y="0" width="90" height="26" rx="13" fill="#1f6feb" opacity="0.2"/>
    <text x="160" y="17" text-anchor="middle" font-family="monospace" font-size="12" fill="#58a6ff">Security</text>
    <rect x="220" y="0" width="90" height="26" rx="13" fill="#8957e5" opacity="0.2"/>
    <text x="265" y="17" text-anchor="middle" font-family="monospace" font-size="12" fill="#a371f7">Copilot</text>
    <rect x="325" y="0" width="90" height="26" rx="13" fill="#1f6feb" opacity="0.2"/>
    <text x="370" y="17" text-anchor="middle" font-family="monospace" font-size="12" fill="#58a6ff">Admin</text>
    <rect x="430" y="0" width="90" height="26" rx="13" fill="#238636" opacity="0.25"/>
    <text x="475" y="17" text-anchor="middle" font-family="monospace" font-size="12" fill="#3fb950">Trial</text>
  </g>
  <!-- Accent line bottom -->
  <rect x="0" y="296" width="1200" height="4" fill="url(#accent)"/>
</svg>
