<svg width="1200" height="300" viewBox="0 0 1200 300" fill="none" xmlns="http://www.w3.org/2000/svg" role="img" aria-labelledby="title desc">
  <title id="title">Security and Compliance Banner</title>
  <desc id="desc">Dark GitHub-themed banner with shield icon, title, subtitle, and badges for GHAS, Supply Chain, Compliance, and Zero Trust.</desc>
  <defs>
    <linearGradient id="bg" x1="0" y1="0" x2="1200" y2="300" gradientUnits="userSpaceOnUse">
      <stop stop-color="#0d1117"/>
      <stop offset="1" stop-color="#161b22"/>
    </linearGradient>
    <linearGradient id="accent" x1="220" y1="40" x2="880" y2="250" gradientUnits="userSpaceOnUse">
      <stop stop-color="#f85149"/>
      <stop offset="1" stop-color="#f0883e"/>
    </linearGradient>
    <linearGradient id="line" x1="0" y1="0" x2="1200" y2="0" gradientUnits="userSpaceOnUse">
      <stop stop-color="#f85149" stop-opacity="0"/>
      <stop offset="0.18" stop-color="#f85149"/>
      <stop offset="0.82" stop-color="#f0883e"/>
      <stop offset="1" stop-color="#f0883e" stop-opacity="0"/>
    </linearGradient>
    <filter id="glow" x="0" y="0" width="1200" height="300" filterUnits="userSpaceOnUse">
      <feGaussianBlur stdDeviation="18" result="blur"/>
      <feMerge>
        <feMergeNode in="blur"/>
        <feMergeNode in="SourceGraphic"/>
      </feMerge>
    </filter>
  </defs>
  <rect width="1200" height="300" rx="24" fill="url(#bg)"/>

  <g opacity="0.22" fill="#8b949e">
    <circle cx="36" cy="36" r="1.6"/>
    <circle cx="60" cy="36" r="1.6"/>
    <circle cx="84" cy="36" r="1.6"/>
    <circle cx="108" cy="36" r="1.6"/>
    <circle cx="132" cy="36" r="1.6"/>
    <circle cx="156" cy="36" r="1.6"/>
    <circle cx="180" cy="36" r="1.6"/>
    <circle cx="204" cy="36" r="1.6"/>
    <circle cx="228" cy="36" r="1.6"/>
    <circle cx="252" cy="36" r="1.6"/>
    <circle cx="276" cy="36" r="1.6"/>
    <circle cx="300" cy="36" r="1.6"/>
    <circle cx="324" cy="36" r="1.6"/>
    <circle cx="348" cy="36" r="1.6"/>
    <circle cx="372" cy="36" r="1.6"/>
    <circle cx="396" cy="36" r="1.6"/>
    <circle cx="420" cy="36" r="1.6"/>
    <circle cx="444" cy="36" r="1.6"/>
    <circle cx="468" cy="36" r="1.6"/>
    <circle cx="492" cy="36" r="1.6"/>
    <circle cx="516" cy="36" r="1.6"/>
    <circle cx="540" cy="36" r="1.6"/>
    <circle cx="564" cy="36" r="1.6"/>
    <circle cx="588" cy="36" r="1.6"/>
    <circle cx="612" cy="36" r="1.6"/>
    <circle cx="636" cy="36" r="1.6"/>
    <circle cx="660" cy="36" r="1.6"/>
    <circle cx="684" cy="36" r="1.6"/>
    <circle cx="708" cy="36" r="1.6"/>
    <circle cx="732" cy="36" r="1.6"/>
    <circle cx="756" cy="36" r="1.6"/>
    <circle cx="780" cy="36" r="1.6"/>
    <circle cx="804" cy="36" r="1.6"/>
    <circle cx="828" cy="36" r="1.6"/>
    <circle cx="852" cy="36" r="1.6"/>
    <circle cx="876" cy="36" r="1.6"/>
    <circle cx="900" cy="36" r="1.6"/>
    <circle cx="924" cy="36" r="1.6"/>
    <circle cx="948" cy="36" r="1.6"/>
    <circle cx="972" cy="36" r="1.6"/>
    <circle cx="996" cy="36" r="1.6"/>
    <circle cx="1020" cy="36" r="1.6"/>
    <circle cx="1044" cy="36" r="1.6"/>
    <circle cx="1068" cy="36" r="1.6"/>
    <circle cx="1092" cy="36" r="1.6"/>
    <circle cx="1116" cy="36" r="1.6"/>
    <circle cx="1140" cy="36" r="1.6"/>
    <circle cx="36" cy="60" r="1.6"/>
    <circle cx="60" cy="60" r="1.6"/>
    <circle cx="84" cy="60" r="1.6"/>
    <circle cx="108" cy="60" r="1.6"/>
    <circle cx="132" cy="60" r="1.6"/>
    <circle cx="156" cy="60" r="1.6"/>
    <circle cx="180" cy="60" r="1.6"/>
    <circle cx="204" cy="60" r="1.6"/>
    <circle cx="228" cy="60" r="1.6"/>
    <circle cx="252" cy="60" r="1.6"/>
    <circle cx="276" cy="60" r="1.6"/>
    <circle cx="300" cy="60" r="1.6"/>
    <circle cx="324" cy="60" r="1.6"/>
    <circle cx="348" cy="60" r="1.6"/>
    <circle cx="372" cy="60" r="1.6"/>
    <circle cx="396" cy="60" r="1.6"/>
    <circle cx="420" cy="60" r="1.6"/>
    <circle cx="444" cy="60" r="1.6"/>
    <circle cx="468" cy="60" r="1.6"/>
    <circle cx="492" cy="60" r="1.6"/>
    <circle cx="516" cy="60" r="1.6"/>
    <circle cx="540" cy="60" r="1.6"/>
    <circle cx="564" cy="60" r="1.6"/>
    <circle cx="588" cy="60" r="1.6"/>
    <circle cx="612" cy="60" r="1.6"/>
    <circle cx="636" cy="60" r="1.6"/>
    <circle cx="660" cy="60" r="1.6"/>
    <circle cx="684" cy="60" r="1.6"/>
    <circle cx="708" cy="60" r="1.6"/>
    <circle cx="732" cy="60" r="1.6"/>
    <circle cx="756" cy="60" r="1.6"/>
    <circle cx="780" cy="60" r="1.6"/>
    <circle cx="804" cy="60" r="1.6"/>
    <circle cx="828" cy="60" r="1.6"/>
    <circle cx="852" cy="60" r="1.6"/>
    <circle cx="876" cy="60" r="1.6"/>
    <circle cx="900" cy="60" r="1.6"/>
    <circle cx="924" cy="60" r="1.6"/>
    <circle cx="948" cy="60" r="1.6"/>
    <circle cx="972" cy="60" r="1.6"/>
    <circle cx="996" cy="60" r="1.6"/>
    <circle cx="1020" cy="60" r="1.6"/>
    <circle cx="1044" cy="60" r="1.6"/>
    <circle cx="1068" cy="60" r="1.6"/>
    <circle cx="1092" cy="60" r="1.6"/>
    <circle cx="1116" cy="60" r="1.6"/>
    <circle cx="1140" cy="60" r="1.6"/>
    <circle cx="36" cy="84" r="1.6"/>
    <circle cx="60" cy="84" r="1.6"/>
    <circle cx="84" cy="84" r="1.6"/>
    <circle cx="108" cy="84" r="1.6"/>
    <circle cx="132" cy="84" r="1.6"/>
    <circle cx="156" cy="84" r="1.6"/>
    <circle cx="180" cy="84" r="1.6"/>
    <circle cx="204" cy="84" r="1.6"/>
    <circle cx="228" cy="84" r="1.6"/>
    <circle cx="252" cy="84" r="1.6"/>
    <circle cx="276" cy="84" r="1.6"/>
    <circle cx="300" cy="84" r="1.6"/>
    <circle cx="324" cy="84" r="1.6"/>
    <circle cx="348" cy="84" r="1.6"/>
    <circle cx="372" cy="84" r="1.6"/>
    <circle cx="396" cy="84" r="1.6"/>
    <circle cx="420" cy="84" r="1.6"/>
    <circle cx="444" cy="84" r="1.6"/>
    <circle cx="468" cy="84" r="1.6"/>
    <circle cx="492" cy="84" r="1.6"/>
    <circle cx="516" cy="84" r="1.6"/>
    <circle cx="540" cy="84" r="1.6"/>
    <circle cx="564" cy="84" r="1.6"/>
    <circle cx="588" cy="84" r="1.6"/>
    <circle cx="612" cy="84" r="1.6"/>
    <circle cx="636" cy="84" r="1.6"/>
    <circle cx="660" cy="84" r="1.6"/>
    <circle cx="684" cy="84" r="1.6"/>
    <circle cx="708" cy="84" r="1.6"/>
    <circle cx="732" cy="84" r="1.6"/>
    <circle cx="756" cy="84" r="1.6"/>
    <circle cx="780" cy="84" r="1.6"/>
    <circle cx="804" cy="84" r="1.6"/>
    <circle cx="828" cy="84" r="1.6"/>
    <circle cx="852" cy="84" r="1.6"/>
    <circle cx="876" cy="84" r="1.6"/>
    <circle cx="900" cy="84" r="1.6"/>
    <circle cx="924" cy="84" r="1.6"/>
    <circle cx="948" cy="84" r="1.6"/>
    <circle cx="972" cy="84" r="1.6"/>
    <circle cx="996" cy="84" r="1.6"/>
    <circle cx="1020" cy="84" r="1.6"/>
    <circle cx="1044" cy="84" r="1.6"/>
    <circle cx="1068" cy="84" r="1.6"/>
    <circle cx="1092" cy="84" r="1.6"/>
    <circle cx="1116" cy="84" r="1.6"/>
    <circle cx="1140" cy="84" r="1.6"/>
    <circle cx="36" cy="108" r="1.6"/>
    <circle cx="60" cy="108" r="1.6"/>
    <circle cx="84" cy="108" r="1.6"/>
    <circle cx="108" cy="108" r="1.6"/>
    <circle cx="132" cy="108" r="1.6"/>
    <circle cx="156" cy="108" r="1.6"/>
    <circle cx="180" cy="108" r="1.6"/>
    <circle cx="204" cy="108" r="1.6"/>
    <circle cx="228" cy="108" r="1.6"/>
    <circle cx="252" cy="108" r="1.6"/>
    <circle cx="276" cy="108" r="1.6"/>
    <circle cx="300" cy="108" r="1.6"/>
    <circle cx="324" cy="108" r="1.6"/>
    <circle cx="348" cy="108" r="1.6"/>
    <circle cx="372" cy="108" r="1.6"/>
    <circle cx="396" cy="108" r="1.6"/>
    <circle cx="420" cy="108" r="1.6"/>
    <circle cx="444" cy="108" r="1.6"/>
    <circle cx="468" cy="108" r="1.6"/>
    <circle cx="492" cy="108" r="1.6"/>
    <circle cx="516" cy="108" r="1.6"/>
    <circle cx="540" cy="108" r="1.6"/>
    <circle cx="564" cy="108" r="1.6"/>
    <circle cx="588" cy="108" r="1.6"/>
    <circle cx="612" cy="108" r="1.6"/>
    <circle cx="636" cy="108" r="1.6"/>
    <circle cx="660" cy="108" r="1.6"/>
    <circle cx="684" cy="108" r="1.6"/>
    <circle cx="708" cy="108" r="1.6"/>
    <circle cx="732" cy="108" r="1.6"/>
    <circle cx="756" cy="108" r="1.6"/>
    <circle cx="780" cy="108" r="1.6"/>
    <circle cx="804" cy="108" r="1.6"/>
    <circle cx="828" cy="108" r="1.6"/>
    <circle cx="852" cy="108" r="1.6"/>
    <circle cx="876" cy="108" r="1.6"/>
    <circle cx="900" cy="108" r="1.6"/>
    <circle cx="924" cy="108" r="1.6"/>
    <circle cx="948" cy="108" r="1.6"/>
    <circle cx="972" cy="108" r="1.6"/>
    <circle cx="996" cy="108" r="1.6"/>
    <circle cx="1020" cy="108" r="1.6"/>
    <circle cx="1044" cy="108" r="1.6"/>
    <circle cx="1068" cy="108" r="1.6"/>
    <circle cx="1092" cy="108" r="1.6"/>
    <circle cx="1116" cy="108" r="1.6"/>
    <circle cx="1140" cy="108" r="1.6"/>
    <circle cx="36" cy="132" r="1.6"/>
    <circle cx="60" cy="132" r="1.6"/>
    <circle cx="84" cy="132" r="1.6"/>
    <circle cx="108" cy="132" r="1.6"/>
    <circle cx="132" cy="132" r="1.6"/>
    <circle cx="156" cy="132" r="1.6"/>
    <circle cx="180" cy="132" r="1.6"/>
    <circle cx="204" cy="132" r="1.6"/>
    <circle cx="228" cy="132" r="1.6"/>
    <circle cx="252" cy="132" r="1.6"/>
    <circle cx="276" cy="132" r="1.6"/>
    <circle cx="300" cy="132" r="1.6"/>
    <circle cx="324" cy="132" r="1.6"/>
    <circle cx="348" cy="132" r="1.6"/>
    <circle cx="372" cy="132" r="1.6"/>
    <circle cx="396" cy="132" r="1.6"/>
    <circle cx="420" cy="132" r="1.6"/>
    <circle cx="444" cy="132" r="1.6"/>
    <circle cx="468" cy="132" r="1.6"/>
    <circle cx="492" cy="132" r="1.6"/>
    <circle cx="516" cy="132" r="1.6"/>
    <circle cx="540" cy="132" r="1.6"/>
    <circle cx="564" cy="132" r="1.6"/>
    <circle cx="588" cy="132" r="1.6"/>
    <circle cx="612" cy="132" r="1.6"/>
    <circle cx="636" cy="132" r="1.6"/>
    <circle cx="660" cy="132" r="1.6"/>
    <circle cx="684" cy="132" r="1.6"/>
    <circle cx="708" cy="132" r="1.6"/>
    <circle cx="732" cy="132" r="1.6"/>
    <circle cx="756" cy="132" r="1.6"/>
    <circle cx="780" cy="132" r="1.6"/>
    <circle cx="804" cy="132" r="1.6"/>
    <circle cx="828" cy="132" r="1.6"/>
    <circle cx="852" cy="132" r="1.6"/>
    <circle cx="876" cy="132" r="1.6"/>
    <circle cx="900" cy="132" r="1.6"/>
    <circle cx="924" cy="132" r="1.6"/>
    <circle cx="948" cy="132" r="1.6"/>
    <circle cx="972" cy="132" r="1.6"/>
    <circle cx="996" cy="132" r="1.6"/>
    <circle cx="1020" cy="132" r="1.6"/>
    <circle cx="1044" cy="132" r="1.6"/>
    <circle cx="1068" cy="132" r="1.6"/>
    <circle cx="1092" cy="132" r="1.6"/>
    <circle cx="1116" cy="132" r="1.6"/>
    <circle cx="1140" cy="132" r="1.6"/>
    <circle cx="36" cy="156" r="1.6"/>
    <circle cx="60" cy="156" r="1.6"/>
    <circle cx="84" cy="156" r="1.6"/>
    <circle cx="108" cy="156" r="1.6"/>
    <circle cx="132" cy="156" r="1.6"/>
    <circle cx="156" cy="156" r="1.6"/>
    <circle cx="180" cy="156" r="1.6"/>
    <circle cx="204" cy="156" r="1.6"/>
    <circle cx="228" cy="156" r="1.6"/>
    <circle cx="252" cy="156" r="1.6"/>
    <circle cx="276" cy="156" r="1.6"/>
    <circle cx="300" cy="156" r="1.6"/>
    <circle cx="324" cy="156" r="1.6"/>
    <circle cx="348" cy="156" r="1.6"/>
    <circle cx="372" cy="156" r="1.6"/>
    <circle cx="396" cy="156" r="1.6"/>
    <circle cx="420" cy="156" r="1.6"/>
    <circle cx="444" cy="156" r="1.6"/>
    <circle cx="468" cy="156" r="1.6"/>
    <circle cx="492" cy="156" r="1.6"/>
    <circle cx="516" cy="156" r="1.6"/>
    <circle cx="540" cy="156" r="1.6"/>
    <circle cx="564" cy="156" r="1.6"/>
    <circle cx="588" cy="156" r="1.6"/>
    <circle cx="612" cy="156" r="1.6"/>
    <circle cx="636" cy="156" r="1.6"/>
    <circle cx="660" cy="156" r="1.6"/>
    <circle cx="684" cy="156" r="1.6"/>
    <circle cx="708" cy="156" r="1.6"/>
    <circle cx="732" cy="156" r="1.6"/>
    <circle cx="756" cy="156" r="1.6"/>
    <circle cx="780" cy="156" r="1.6"/>
    <circle cx="804" cy="156" r="1.6"/>
    <circle cx="828" cy="156" r="1.6"/>
    <circle cx="852" cy="156" r="1.6"/>
    <circle cx="876" cy="156" r="1.6"/>
    <circle cx="900" cy="156" r="1.6"/>
    <circle cx="924" cy="156" r="1.6"/>
    <circle cx="948" cy="156" r="1.6"/>
    <circle cx="972" cy="156" r="1.6"/>
    <circle cx="996" cy="156" r="1.6"/>
    <circle cx="1020" cy="156" r="1.6"/>
    <circle cx="1044" cy="156" r="1.6"/>
    <circle cx="1068" cy="156" r="1.6"/>
    <circle cx="1092" cy="156" r="1.6"/>
    <circle cx="1116" cy="156" r="1.6"/>
    <circle cx="1140" cy="156" r="1.6"/>
    <circle cx="36" cy="180" r="1.6"/>
    <circle cx="60" cy="180" r="1.6"/>
    <circle cx="84" cy="180" r="1.6"/>
    <circle cx="108" cy="180" r="1.6"/>
    <circle cx="132" cy="180" r="1.6"/>
    <circle cx="156" cy="180" r="1.6"/>
    <circle cx="180" cy="180" r="1.6"/>
    <circle cx="204" cy="180" r="1.6"/>
    <circle cx="228" cy="180" r="1.6"/>
    <circle cx="252" cy="180" r="1.6"/>
    <circle cx="276" cy="180" r="1.6"/>
    <circle cx="300" cy="180" r="1.6"/>
    <circle cx="324" cy="180" r="1.6"/>
    <circle cx="348" cy="180" r="1.6"/>
    <circle cx="372" cy="180" r="1.6"/>
    <circle cx="396" cy="180" r="1.6"/>
    <circle cx="420" cy="180" r="1.6"/>
    <circle cx="444" cy="180" r="1.6"/>
    <circle cx="468" cy="180" r="1.6"/>
    <circle cx="492" cy="180" r="1.6"/>
    <circle cx="516" cy="180" r="1.6"/>
    <circle cx="540" cy="180" r="1.6"/>
    <circle cx="564" cy="180" r="1.6"/>
    <circle cx="588" cy="180" r="1.6"/>
    <circle cx="612" cy="180" r="1.6"/>
    <circle cx="636" cy="180" r="1.6"/>
    <circle cx="660" cy="180" r="1.6"/>
    <circle cx="684" cy="180" r="1.6"/>
    <circle cx="708" cy="180" r="1.6"/>
    <circle cx="732" cy="180" r="1.6"/>
    <circle cx="756" cy="180" r="1.6"/>
    <circle cx="780" cy="180" r="1.6"/>
    <circle cx="804" cy="180" r="1.6"/>
    <circle cx="828" cy="180" r="1.6"/>
    <circle cx="852" cy="180" r="1.6"/>
    <circle cx="876" cy="180" r="1.6"/>
    <circle cx="900" cy="180" r="1.6"/>
    <circle cx="924" cy="180" r="1.6"/>
    <circle cx="948" cy="180" r="1.6"/>
    <circle cx="972" cy="180" r="1.6"/>
    <circle cx="996" cy="180" r="1.6"/>
    <circle cx="1020" cy="180" r="1.6"/>
    <circle cx="1044" cy="180" r="1.6"/>
    <circle cx="1068" cy="180" r="1.6"/>
    <circle cx="1092" cy="180" r="1.6"/>
    <circle cx="1116" cy="180" r="1.6"/>
    <circle cx="1140" cy="180" r="1.6"/>
    <circle cx="36" cy="204" r="1.6"/>
    <circle cx="60" cy="204" r="1.6"/>
    <circle cx="84" cy="204" r="1.6"/>
    <circle cx="108" cy="204" r="1.6"/>
    <circle cx="132" cy="204" r="1.6"/>
    <circle cx="156" cy="204" r="1.6"/>
    <circle cx="180" cy="204" r="1.6"/>
    <circle cx="204" cy="204" r="1.6"/>
    <circle cx="228" cy="204" r="1.6"/>
    <circle cx="252" cy="204" r="1.6"/>
    <circle cx="276" cy="204" r="1.6"/>
    <circle cx="300" cy="204" r="1.6"/>
    <circle cx="324" cy="204" r="1.6"/>
    <circle cx="348" cy="204" r="1.6"/>
    <circle cx="372" cy="204" r="1.6"/>
    <circle cx="396" cy="204" r="1.6"/>
    <circle cx="420" cy="204" r="1.6"/>
    <circle cx="444" cy="204" r="1.6"/>
    <circle cx="468" cy="204" r="1.6"/>
    <circle cx="492" cy="204" r="1.6"/>
    <circle cx="516" cy="204" r="1.6"/>
    <circle cx="540" cy="204" r="1.6"/>
    <circle cx="564" cy="204" r="1.6"/>
    <circle cx="588" cy="204" r="1.6"/>
    <circle cx="612" cy="204" r="1.6"/>
    <circle cx="636" cy="204" r="1.6"/>
    <circle cx="660" cy="204" r="1.6"/>
    <circle cx="684" cy="204" r="1.6"/>
    <circle cx="708" cy="204" r="1.6"/>
    <circle cx="732" cy="204" r="1.6"/>
    <circle cx="756" cy="204" r="1.6"/>
    <circle cx="780" cy="204" r="1.6"/>
    <circle cx="804" cy="204" r="1.6"/>
    <circle cx="828" cy="204" r="1.6"/>
    <circle cx="852" cy="204" r="1.6"/>
    <circle cx="876" cy="204" r="1.6"/>
    <circle cx="900" cy="204" r="1.6"/>
    <circle cx="924" cy="204" r="1.6"/>
    <circle cx="948" cy="204" r="1.6"/>
    <circle cx="972" cy="204" r="1.6"/>
    <circle cx="996" cy="204" r="1.6"/>
    <circle cx="1020" cy="204" r="1.6"/>
    <circle cx="1044" cy="204" r="1.6"/>
    <circle cx="1068" cy="204" r="1.6"/>
    <circle cx="1092" cy="204" r="1.6"/>
    <circle cx="1116" cy="204" r="1.6"/>
    <circle cx="1140" cy="204" r="1.6"/>
    <circle cx="36" cy="228" r="1.6"/>
    <circle cx="60" cy="228" r="1.6"/>
    <circle cx="84" cy="228" r="1.6"/>
    <circle cx="108" cy="228" r="1.6"/>
    <circle cx="132" cy="228" r="1.6"/>
    <circle cx="156" cy="228" r="1.6"/>
    <circle cx="180" cy="228" r="1.6"/>
    <circle cx="204" cy="228" r="1.6"/>
    <circle cx="228" cy="228" r="1.6"/>
    <circle cx="252" cy="228" r="1.6"/>
    <circle cx="276" cy="228" r="1.6"/>
    <circle cx="300" cy="228" r="1.6"/>
    <circle cx="324" cy="228" r="1.6"/>
    <circle cx="348" cy="228" r="1.6"/>
    <circle cx="372" cy="228" r="1.6"/>
    <circle cx="396" cy="228" r="1.6"/>
    <circle cx="420" cy="228" r="1.6"/>
    <circle cx="444" cy="228" r="1.6"/>
    <circle cx="468" cy="228" r="1.6"/>
    <circle cx="492" cy="228" r="1.6"/>
    <circle cx="516" cy="228" r="1.6"/>
    <circle cx="540" cy="228" r="1.6"/>
    <circle cx="564" cy="228" r="1.6"/>
    <circle cx="588" cy="228" r="1.6"/>
    <circle cx="612" cy="228" r="1.6"/>
    <circle cx="636" cy="228" r="1.6"/>
    <circle cx="660" cy="228" r="1.6"/>
    <circle cx="684" cy="228" r="1.6"/>
    <circle cx="708" cy="228" r="1.6"/>
    <circle cx="732" cy="228" r="1.6"/>
    <circle cx="756" cy="228" r="1.6"/>
    <circle cx="780" cy="228" r="1.6"/>
    <circle cx="804" cy="228" r="1.6"/>
    <circle cx="828" cy="228" r="1.6"/>
    <circle cx="852" cy="228" r="1.6"/>
    <circle cx="876" cy="228" r="1.6"/>
    <circle cx="900" cy="228" r="1.6"/>
    <circle cx="924" cy="228" r="1.6"/>
    <circle cx="948" cy="228" r="1.6"/>
    <circle cx="972" cy="228" r="1.6"/>
    <circle cx="996" cy="228" r="1.6"/>
    <circle cx="1020" cy="228" r="1.6"/>
    <circle cx="1044" cy="228" r="1.6"/>
    <circle cx="1068" cy="228" r="1.6"/>
    <circle cx="1092" cy="228" r="1.6"/>
    <circle cx="1116" cy="228" r="1.6"/>
    <circle cx="1140" cy="228" r="1.6"/>
    <circle cx="36" cy="252" r="1.6"/>
    <circle cx="60" cy="252" r="1.6"/>
    <circle cx="84" cy="252" r="1.6"/>
    <circle cx="108" cy="252" r="1.6"/>
    <circle cx="132" cy="252" r="1.6"/>
    <circle cx="156" cy="252" r="1.6"/>
    <circle cx="180" cy="252" r="1.6"/>
    <circle cx="204" cy="252" r="1.6"/>
    <circle cx="228" cy="252" r="1.6"/>
    <circle cx="252" cy="252" r="1.6"/>
    <circle cx="276" cy="252" r="1.6"/>
    <circle cx="300" cy="252" r="1.6"/>
    <circle cx="324" cy="252" r="1.6"/>
    <circle cx="348" cy="252" r="1.6"/>
    <circle cx="372" cy="252" r="1.6"/>
    <circle cx="396" cy="252" r="1.6"/>
    <circle cx="420" cy="252" r="1.6"/>
    <circle cx="444" cy="252" r="1.6"/>
    <circle cx="468" cy="252" r="1.6"/>
    <circle cx="492" cy="252" r="1.6"/>
    <circle cx="516" cy="252" r="1.6"/>
    <circle cx="540" cy="252" r="1.6"/>
    <circle cx="564" cy="252" r="1.6"/>
    <circle cx="588" cy="252" r="1.6"/>
    <circle cx="612" cy="252" r="1.6"/>
    <circle cx="636" cy="252" r="1.6"/>
    <circle cx="660" cy="252" r="1.6"/>
    <circle cx="684" cy="252" r="1.6"/>
    <circle cx="708" cy="252" r="1.6"/>
    <circle cx="732" cy="252" r="1.6"/>
    <circle cx="756" cy="252" r="1.6"/>
    <circle cx="780" cy="252" r="1.6"/>
    <circle cx="804" cy="252" r="1.6"/>
    <circle cx="828" cy="252" r="1.6"/>
    <circle cx="852" cy="252" r="1.6"/>
    <circle cx="876" cy="252" r="1.6"/>
    <circle cx="900" cy="252" r="1.6"/>
    <circle cx="924" cy="252" r="1.6"/>
    <circle cx="948" cy="252" r="1.6"/>
    <circle cx="972" cy="252" r="1.6"/>
    <circle cx="996" cy="252" r="1.6"/>
    <circle cx="1020" cy="252" r="1.6"/>
    <circle cx="1044" cy="252" r="1.6"/>
    <circle cx="1068" cy="252" r="1.6"/>
    <circle cx="1092" cy="252" r="1.6"/>
    <circle cx="1116" cy="252" r="1.6"/>
    <circle cx="1140" cy="252" r="1.6"/>
    <circle cx="36" cy="276" r="1.6"/>
    <circle cx="60" cy="276" r="1.6"/>
    <circle cx="84" cy="276" r="1.6"/>
    <circle cx="108" cy="276" r="1.6"/>
    <circle cx="132" cy="276" r="1.6"/>
    <circle cx="156" cy="276" r="1.6"/>
    <circle cx="180" cy="276" r="1.6"/>
    <circle cx="204" cy="276" r="1.6"/>
    <circle cx="228" cy="276" r="1.6"/>
    <circle cx="252" cy="276" r="1.6"/>
    <circle cx="276" cy="276" r="1.6"/>
    <circle cx="300" cy="276" r="1.6"/>
    <circle cx="324" cy="276" r="1.6"/>
    <circle cx="348" cy="276" r="1.6"/>
    <circle cx="372" cy="276" r="1.6"/>
    <circle cx="396" cy="276" r="1.6"/>
    <circle cx="420" cy="276" r="1.6"/>
    <circle cx="444" cy="276" r="1.6"/>
    <circle cx="468" cy="276" r="1.6"/>
    <circle cx="492" cy="276" r="1.6"/>
    <circle cx="516" cy="276" r="1.6"/>
    <circle cx="540" cy="276" r="1.6"/>
    <circle cx="564" cy="276" r="1.6"/>
    <circle cx="588" cy="276" r="1.6"/>
    <circle cx="612" cy="276" r="1.6"/>
    <circle cx="636" cy="276" r="1.6"/>
    <circle cx="660" cy="276" r="1.6"/>
    <circle cx="684" cy="276" r="1.6"/>
    <circle cx="708" cy="276" r="1.6"/>
    <circle cx="732" cy="276" r="1.6"/>
    <circle cx="756" cy="276" r="1.6"/>
    <circle cx="780" cy="276" r="1.6"/>
    <circle cx="804" cy="276" r="1.6"/>
    <circle cx="828" cy="276" r="1.6"/>
    <circle cx="852" cy="276" r="1.6"/>
    <circle cx="876" cy="276" r="1.6"/>
    <circle cx="900" cy="276" r="1.6"/>
    <circle cx="924" cy="276" r="1.6"/>
    <circle cx="948" cy="276" r="1.6"/>
    <circle cx="972" cy="276" r="1.6"/>
    <circle cx="996" cy="276" r="1.6"/>
    <circle cx="1020" cy="276" r="1.6"/>
    <circle cx="1044" cy="276" r="1.6"/>
    <circle cx="1068" cy="276" r="1.6"/>
    <circle cx="1092" cy="276" r="1.6"/>
    <circle cx="1116" cy="276" r="1.6"/>
    <circle cx="1140" cy="276" r="1.6"/>
  </g>

  <path d="M32 24H1168" stroke="url(#line)" stroke-width="4" stroke-linecap="round"/>
  <path d="M32 276H1168" stroke="url(#line)" stroke-width="4" stroke-linecap="round"/>

  <g filter="url(#glow)">
    <ellipse cx="928" cy="150" rx="190" ry="92" fill="url(#accent)" opacity="0.14"/>
    <ellipse cx="820" cy="112" rx="108" ry="58" fill="#f85149" opacity="0.10"/>
  </g>

  <g transform="translate(82 72)">
    <rect x="0" y="0" width="112" height="112" rx="28" fill="#0d1117" stroke="#30363d"/>
    <path d="M56 20L88 32V62C88 84 74.5 104.2 56 112C37.5 104.2 24 84 24 62V32L56 20Z" fill="url(#accent)"/>
    <path d="M56 40L69 53L63 59L56 52L46 62L40 56L56 40Z" fill="#fff8f2"/>
    <path d="M44 70H68" stroke="#fff8f2" stroke-width="8" stroke-linecap="round"/>
  </g>

  <g transform="translate(228 78)">
    <text x="0" y="58" fill="#f0f6fc" font-family="-apple-system, BlinkMacSystemFont, 'Segoe UI', Helvetica, Arial, sans-serif" font-size="46" font-weight="700">Security &amp; Compliance</text>
    <text x="0" y="102" fill="#8b949e" font-family="-apple-system, BlinkMacSystemFont, 'Segoe UI', Helvetica, Arial, sans-serif" font-size="22" font-weight="500">Shift Left — Secure Your Software Supply Chain</text>
  </g>
  <g transform="translate(228 182)">
    <rect width="112" height="42" rx="21" fill="#161b22" stroke="#30363d"/>
    <circle cx="20" cy="21" r="6" fill="url(#accent)"/>
    <text x="36" y="27" fill="#e6edf3" font-family="-apple-system, BlinkMacSystemFont, 'Segoe UI', Helvetica, Arial, sans-serif" font-size="18" font-weight="600">GHAS</text>
  </g>
  <g transform="translate(372 182)">
    <rect width="174" height="42" rx="21" fill="#161b22" stroke="#30363d"/>
    <circle cx="20" cy="21" r="6" fill="url(#accent)"/>
    <text x="36" y="27" fill="#e6edf3" font-family="-apple-system, BlinkMacSystemFont, 'Segoe UI', Helvetica, Arial, sans-serif" font-size="18" font-weight="600">Supply Chain</text>
  </g>
  <g transform="translate(586 182)">
    <rect width="158" height="42" rx="21" fill="#161b22" stroke="#30363d"/>
    <circle cx="20" cy="21" r="6" fill="url(#accent)"/>
    <text x="36" y="27" fill="#e6edf3" font-family="-apple-system, BlinkMacSystemFont, 'Segoe UI', Helvetica, Arial, sans-serif" font-size="18" font-weight="600">Compliance</text>
  </g>
  <g transform="translate(776 182)">
    <rect width="146" height="42" rx="21" fill="#161b22" stroke="#30363d"/>
    <circle cx="20" cy="21" r="6" fill="url(#accent)"/>
    <text x="36" y="27" fill="#e6edf3" font-family="-apple-system, BlinkMacSystemFont, 'Segoe UI', Helvetica, Arial, sans-serif" font-size="18" font-weight="600">Zero Trust</text>
  </g>
</svg>
